<?xml version="1.0" encoding="UTF-8"?>
<svg version="1.1" xmlns="http://www.w3.org/2000/svg" width="20" height="20">
<path d="M0 0 C2.5 1.4375 2.5 1.4375 4 4 C4.10186593 6.31320554 3.9962659 8.57118138 3.875 10.8828125 C3.80281127 13.2462096 3.80281127 13.2462096 6 15.375 C6.99 16.179375 6.99 16.179375 8 17 C8 17.99 8 18.98 8 20 C5.4988252 19.55336164 4.17243054 19.15395584 2.25 17.4375 C-0.29998093 15.80834552 -1.07676496 15.90009805 -4 16.0625 C-6.99890737 16.1576146 -7.82474517 16.1051529 -10.5 14.5 C-12.62153384 10.96411027 -12.791013 8.02098277 -12 4 C-9.15467665 -0.74220558 -5.08013991 -0.98896166 0 0 Z M-5 2 C-6.65 3.65 -8.3 5.3 -10 7 C-9.36078035 9.47627099 -9.36078035 9.47627099 -8 12 C-5.47627099 13.36078035 -5.47627099 13.36078035 -3 14 C-1.35 12.35 0.3 10.7 2 9 C1.36078035 6.52372901 1.36078035 6.52372901 0 4 C-2.52372901 2.63921965 -2.52372901 2.63921965 -5 2 Z " fill="#111111" transform="translate(12,0)"/>
</svg>
